<?xml version="1.0" encoding="UTF-8" standalone="no"?>
<!-- Created with Inkscape (http://www.inkscape.org/) -->

<svg
   width="250mm"
   height="250mm"
   viewBox="0 0 250 250"
   version="1.1"
   id="svg1"
   xml:space="preserve"
   inkscape:version="1.4.3 (0d15f75042, 2025-12-25)"
   sodipodi:docname="Icon.svg"
   inkscape:export-filename="Icon.png"
   inkscape:export-xdpi="96"
   inkscape:export-ydpi="96"
   xmlns:inkscape="http://www.inkscape.org/namespaces/inkscape"
   xmlns:sodipodi="http://sodipodi.sourceforge.net/DTD/sodipodi-0.dtd"
   xmlns="http://www.w3.org/2000/svg"
   xmlns:svg="http://www.w3.org/2000/svg"><sodipodi:namedview
     id="namedview1"
     pagecolor="#505050"
     bordercolor="#eeeeee"
     borderopacity="1"
     inkscape:showpageshadow="0"
     inkscape:pageopacity="0"
     inkscape:pagecheckerboard="0"
     inkscape:deskcolor="#686868"
     inkscape:document-units="mm"
     showgrid="true"
     inkscape:zoom="1"
     inkscape:cx="340.5"
     inkscape:cy="500"
     inkscape:window-width="1920"
     inkscape:window-height="1017"
     inkscape:window-x="0"
     inkscape:window-y="0"
     inkscape:window-maximized="1"
     inkscape:current-layer="layer1"><inkscape:grid
       id="grid1"
       units="mm"
       originx="0"
       originy="0"
       spacingx="0.99999999"
       spacingy="0.99999999"
       empcolor="#0099e5"
       empopacity="0.30196078"
       color="#0099e5"
       opacity="0.14902"
       empspacing="5"
       enabled="true"
       visible="true" /></sodipodi:namedview><defs
     id="defs1"><style
       id="style1">.cls-1{fill:#ff5951;}</style></defs><g
     inkscape:label="Layer 1"
     inkscape:groupmode="layer"
     id="layer1"><circle
       style="fill:none;fill-opacity:1;stroke:#9d9d9d;stroke-width:4.36228;stroke-dasharray:13.0868, 4.36228;stroke-dashoffset:0;stroke-opacity:1;paint-order:markers stroke fill"
       id="path3"
       cx="122.59895"
       cy="125.06937"
       r="118.36789" /><circle
       style="fill:#026ebb;fill-opacity:1;stroke:#ffffff;stroke-width:20.1584;stroke-dasharray:none;stroke-opacity:1;paint-order:markers stroke fill"
       id="path2"
       cx="122.59895"
       cy="125.06937"
       r="88.696938" /><circle
       style="fill:#026ebb;fill-opacity:1;stroke:#ffffff;stroke-width:12.9014;stroke-dasharray:none;stroke-opacity:1;paint-order:markers stroke fill"
       id="path2-2"
       cx="215.32756"
       cy="36.372437"
       r="28.221752" /></g><g
     inkscape:groupmode="layer"
     id="layer2"
     inkscape:label="Layer 2"><g
       id="Logo"
       transform="matrix(0.19035806,0,0,0.19035806,69.489055,67.607062)"
       style="display:inline"><path
         class="cls-1"
         d="m 291,204.23 85,49.12 a 24,24 0 0 1 12,20.78 v 98.31 a 24,24 0 0 1 -12,20.77 l -85,49.13 a 24,24 0 0 1 -24,0 l -85,-49.13 a 24,24 0 0 1 -12,-20.77 v -98.31 a 24,24 0 0 1 12,-20.78 l 85,-49.12 a 24,24 0 0 1 24,0 z"
         id="path1"
         style="fill:#ffffff;fill-opacity:1;stroke:#ffffff;stroke-opacity:1" /><path
         class="cls-1"
         d="m 267,121.23 -119.4,69.06 a 24,24 0 0 1 -24.16,-0.07 L 69.58,158.64 a 24,24 0 0 1 0.14,-41.48 L 267,3.22 a 24,24 0 0 1 24,0 l 197.29,113.94 a 24,24 0 0 1 0.14,41.49 l -53.84,31.56 a 24,24 0 0 1 -24.15,0.08 L 291,121.23 a 24,24 0 0 0 -24,0 z"
         id="path2-0"
         style="fill:#ffffff;fill-opacity:1;stroke:#ffffff;stroke-opacity:1" /><path
         class="cls-1"
         d="m 457,270.18 v 138.2 A 24,24 0 0 1 444.94,429.2 L 326.06,497.37 A 24,24 0 0 0 314,518.19 v 61.51 a 24,24 0 0 0 36,20.78 L 546,487.21 a 24,24 0 0 0 12,-20.78 V 239.74 a 24,24 0 0 0 -36,-20.81 l -53,30.44 a 24,24 0 0 0 -12,20.81 z"
         id="path3-9"
         style="fill:#ffffff;fill-opacity:1;stroke:#ffffff;stroke-opacity:1" /><path
         class="cls-1"
         d="m 101,270.18 v 138.2 a 24,24 0 0 0 12.06,20.82 l 118.88,68.17 A 24,24 0 0 1 244,518.19 v 61.51 a 24,24 0 0 1 -36,20.78 L 12,487.21 A 24,24 0 0 1 0,466.43 V 239.74 a 24,24 0 0 1 36,-20.81 l 53,30.44 a 24,24 0 0 1 12,20.81 z"
         id="path4"
         style="fill:#ffffff;fill-opacity:1;stroke:#ffffff;stroke-opacity:1" /></g></g></svg>
